<?xml version="1.0" encoding="utf-8"?>
<svg version="1.0" width="248.000000pt" height="248.000000pt" viewBox="0 0 248.000000 248.000000" preserveAspectRatio="xMidYMid meet" xmlns="http://www.w3.org/2000/svg">
  <g transform="translate(0.000000,248.000000) scale(0.100000,-0.100000)" fill="#000000" stroke="none">
    <path d="M1967 1973 c-15 -2 -43 -20 -62 -39 -91 -90 -30 -236 99 -236 90 0 141 49 141 137 0 97 -74 155 -178 138z" style="paint-order: fill; fill: rgb(236, 72, 153);"/>
    <path d="M 1065 1585 C 989 1568 946 1550 893 1511 C 848 1478 785 1393 775 1350 C 769 1326 773 1323 857 1296 C 905 1280 950 1265 956 1263 C 962 1261 970 1272 973 1289 C 982 1334 1047 1396 1100 1410 C 1193 1435 1308 1404 1342 1345 C 1352 1327 1361 1288 1362 1255 L 1365 1195 L 1180 1189 C 986 1184 920 1172 859 1134 C 771 1079 731 1006 731 895 C 730 714 865 600 1081 600 C 1210 600 1293 638 1345 721 C 1374 767 1388 764 1415 707 C 1446 643 1482 627 1603 626 L 1705 625 L 1708 713 L 1711 800 L 1661 800 C 1580 800 1580 800 1580 1038 C 1580 1152 1575 1274 1569 1310 C 1558 1380 1522 1454 1481 1494 C 1436 1537 1341.502 1588.421 1258.502 1599.421 C 1162.502 1612.421 1141 1602 1065 1585 Z M 1363 990 C 1357 914 1349 893 1304 848 C 1200 742 1008 748 954 858 C 922 925 964 1000 1045 1019 C 1067 1024 1148 1028 1225 1027 L 1365 1025 L 1363 990 Z" style="paint-order: fill; fill: rgb(236, 72, 153);"/>
    <path d="M1902 1098 l3 -473 105 0 105 0 0 470 0 470 -108 3 -107 3 2 -473z" style="paint-order: fill; fill: rgb(236, 72, 153);"/>
    <path d="M 292 913 C 241 888 205.626 845 201.626 773 C 197.626 719 211 704 231 674 C 276 607 381 579 450 615 C 549 666 568 816 484 889 C 465 906 445 918 440 915 C 435 912 429 914 425 920 C 415 936 329 931 292 913 Z" style="paint-order: fill; fill: rgb(236, 72, 153);"/>
  </g>
</svg>
